<svg xmlns="http://www.w3.org/2000/svg" version="1.1" xmlns:xlink="http://www.w3.org/1999/xlink" xmlns:svgjs="http://svgjs.dev/svgjs" viewBox="0 0 1422 800"><defs><linearGradient x1="50%" y1="0%" x2="50%" y2="100%" id="ssscribble-grad"><stop stop-color="hsl(206, 75%, 49%)" stop-opacity="1" offset="0%"></stop><stop stop-color="hsl(331, 90%, 56%)" stop-opacity="1" offset="100%"></stop></linearGradient></defs><g fill="none" stroke-width="1.5" stroke="url(#ssscribble-grad)" stroke-linecap="round"><path d="M1248.42 608.69C1351.84 641.55 1404.58 678.49 1395.74 716.7 1331.74 752.18 1228.05 783.6 1111.22 805.09 1002.6 816.81 922.58 811.18 879.35 784.53 874.56 747.3 899.41 693.92 940.46 633.57 994.73 587.75 1043.31 561.28 1078.2 569.79 1105.19 621.97 1113.71 714.58 1106.24 834.9 1090.61 956.12 1064.74 1051.93 1033.45 1093.27 999.71 1069.18 965.22 981.57 932.36 854.98 899.5 735.16 869.83 658.55 841.59 644.06 810.9 693.65 777 784 735.68 884.04 686.2 972.98 623.57 1021.33 545.93 1021.42 460.4 977.48 364.64 897.88 267.3 800.5 183.17 694.12 119.37 595.98 89.93 514.04 98.95 445.69 149.5 395.45 234.03 358.77 326.78 332.16 411.77 310.63 463.08 288.64 459.24 269.21 399.84 244.17 296.42 211.31 175.61 178.45 76.98 139.32 26.02 96.78 30.28 56.8 90.55 18.55 188.55 -11.78 304.5 -32.05 414.33 -35.93 500.55 -18.24 555.47 13.05 576.28 64.01 570.12 127.33 539.83 181.63 501.03 222.28 464.52 232.01 426.48 197.72 401.52 119.9 391.48 6.89 386.65 -117.24 395.12 -226.29 414.07 -288.57 435.19 -286.78 463 -216.84 495.86 -97.04 528.72 29.55 565.08 123.84 605.93 160.62 648.95 131.97 700.26 54.87 762.04 -42.25 829.03 -138.49 908.11 -201.64 996.79 -219.6 1083.95 -193.9 1169.93 -128.47 1243.29 -39.58 1292.52 63.83 1310.67 164.39 1289.97 252.27 1237.96 329.56 1157.6 389.3 1065.74 434.54 991.83 469.99 950.26 498.35 958.68 524.84 1022.32 548.61 1127.62 575.83 1248.42 608.69Q1248.42 608.69 1248.42 608.69" opacity="0.29"></path><path d="M1214.42 622.8C1311.71 653.32 1366.21 680.43 1367.99 702.31 1320.85 721.93 1234.38 732.24 1128.95 729.91 1021.55 721.52 930.84 697.77 867.3 659.4 834.62 620.08 830.88 575.44 847.78 535.74 883.4 517.57 923.02 523.98 957.95 564.07 992.89 638.13 1015.1 740.38 1023.52 855.9 1027.24 961.14 1019 1035.84 1001.29 1058.85 981.7 1025.53 955.96 939.21 925.45 820.98 894.93 708.61 861.09 631.63 823.13 606.82 783.3 638.43 736.03 710.72 679.44 800.32 618.14 891.38 545.67 956.49 463.7 984.4 381.74 975.74 298.31 930.34 222.7 860.03 165.81 771.75 133.37 679.51 134.28 593.25 166.04 511.15 229.38 442.36 314.42 386.79 397.49 338.33 466.58 298.92 501.95 265.13 488.39 233.71 427.71 203.5 330.42 172.99 218.09 142.48 123.34 113.11 67.55 86.97 57.72 63.22 98.09 47.11 176.44 42.7 278.33 45.38 384.76 63.91 479.22 98.99 553.91 138.22 601.34 186.65 623.32 234.94 621.36 265.26 604.66 274.5 582.31 251.38 551.97 191.71 527.07 99.24 511.97 -14.17 496.62 -170.97 525.87 -210.79 566.75 -63.04 597.26 55.19 636.12 147.71 683.1 192.82 731.17 181.59 788.98 124.27 856.06 41.4 924.04 -51.75 999.19 -126.64 1076.56 -168.93 1145.95 -177.25 1206.44 -147.49 1248.4 -89.33 1266.41 -9.63 1255.16 78.8 1212.25 165.15 1149.56 250.55 1070.5 324.56 990.97 385.82 934.99 441.03 911.99 486.23 933.6 524.16 1001.16 559.82 1102.09 592.29 1214.42 622.8Q1214.42 622.8 1214.42 622.8" opacity="0.51"></path><path d="M1180.42 559.96C1298.97 597.74 1271.55 624.32 1146.17 608.23 1045.82 591.92 951.92 565.05 875.5 531.33 805.91 492.07 803.45 498.52 837.75 580.65 867.31 667.31 890.7 770.13 904.57 874.28 917.45 960.67 919.41 1014.48 910.61 1021.18 900.87 980.65 881.79 896.69 853.62 786.98 825.45 682.29 789.54 606.08 746.15 572.84 701.84 587.97 648.64 641.6 586.95 716.98 524.26 803 454.49 875.93 381.51 923.37 314.36 944.31 252.81 932.37 205.05 893.7 177.05 833.69 173.55 761.08 198.86 685.37 245.95 605.89 314.59 532.82 394.3 469.38 464.65 408.85 517.36 357.96 537.99 315.94 516.3 275.42 455.35 241.24 364.42 213.07 260.63 184.9 170.55 164.09 111.73 151.48 90.15 140.39 112.17 140.04 170.3 151.75 254.46 166.39 350.77 193.07 444.93 229.14 530.03 261.43 596.41 293.61 642.04 316.7 667.71 318.46 676.69 297 675.24 246.75 662.72 169.97 649.05 71.79 639.41 -34.86 625.37 -165.72 644.66 -168.96 681.3 -29.04 709.47 80.67 747.53 170.35 794.29 221.76 841.04 225.94 896.09 188.17 957.04 122.42 1015.49 38.92 1075.54 -38.63 1131.47 -95.97 1176.34 -130.71 1207.8 -133.44 1219.04 -108.08 1210.33 -59.9 1177.34 4.33 1121.57 75.09 1056.74 152.23 985.69 225.49 922.18 290.61 884.69 354.11 878.7 408.15 911.15 452.7 980.85 496.03 1076.63 531.79 1180.42 559.96Q1180.42 559.96 1180.42 559.96" opacity="0.21"></path><path d="M1146.42 441.86C1258.26 475.14 1260.92 488.92 1160.63 471.98 1072.02 459.88 981.87 443.09 900.45 426.44 831.76 419.9 781.59 422.48 749.65 440.55 734.98 478.2 733.22 536.5 738.8 614.61 753.15 704.25 767.15 799.57 776.64 887.39 788.06 953.49 791.61 987.57 785.78 980.3 779.96 934.61 764.44 854.01 738.62 752.98 712.8 656.17 677.9 581.85 635.04 542.13 592.17 542.71 541.65 578.04 485.49 636.79 431.25 711.93 374.73 784.24 320.59 841.95 257.56 891.74 228.62 840.72 280.2 763.77 334.73 700.77 401.72 637.34 471.41 578.3 527.13 518.36 563.73 465.74 571.17 421.93 542.99 378.53 482.76 343.53 398.42 317.71 303.25 291.89 218.56 276.47 158.43 271.18 127.57 266.3 133.39 271.95 171.88 287.14 236.24 301.44 317.34 322.35 403.67 345.55 489.69 360.19 565.6 368.15 627.1 362.48 674.79 336.96 707.28 290.39 727.8 221.7 737.4 137.11 741.4 41.66 744.33 -52.41 744.2 -155.1 770.77 -126.39 804.8 4.94 830.62 105.98 864.61 191.82 905.13 247.49 944.87 264.73 989.38 245.35 1035.49 198.18 1077.3 129.29 1115.82 57.12 1146.02 -5.62 1165.29 -56.86 1169.86 -84.55 1156.01 -88.36 1128.36 -72.59 1083.06 -38.1 1023.92 8.22 964.48 64.67 906.54 123.98 861.1 180.83 841.53 239.7 850.41 292.28 891.23 336.46 961.32 380.55 1051.25 416.04 1146.42 441.86Q1146.42 441.86 1146.42 441.86" opacity="0.27"></path><path d="M1112.03 309.19C1216.58 339.82 1245.22 360.44 1170.49 357.3 1097 357.87 1016.4 359.07 937.44 365.22 863.32 381.67 800.87 409.25 752.08 451.32 715.9 507.08 692.22 577.43 677.82 658.98 672.36 742.82 670.69 824.3 669.07 892.72 670.91 938.52 668.89 954.83 660.78 936.23 653.33 887.37 638.36 811.09 614.88 718.87 591.41 630.15 560.55 558.76 523.74 514.56 487.58 502.87 446.9 521.14 404.39 562.27 365.33 622.41 328.35 686.95 297.63 745.88 270.84 815.89 306.59 841.78 373.58 804.98 428.09 766.48 487.65 722.38 543.93 677.47 584.1 629.25 605.45 584.38 601.42 545.54 568.29 506.22 509.63 474.12 432.03 450.65 345.5 427.18 266.89 413.45 207.2 408.5 169.73 403.07 162.12 405.24 182.71 412.78 226.99 417.02 289.8 422.46 362.53 424.78 441.07 417.26 516.9 399.86 584.83 368.37 645.54 321.76 694.76 258.99 733.12 182.02 763 98.64 785.3 13.06 803.06 -64.28 816.37 -122.62 829.27 -154.25 844.25 -151.62 858.11 -116.47 876.25 -49.84 899.72 38.87 923.2 131.09 950.89 212.13 981.29 270.05 1010.58 297.71 1040.38 294.75 1067.75 266.16 1090.66 214.95 1107.01 154.51 1113.32 95.12 1111.13 38 1095.61 -4.51 1065.67 -29.5 1028.5 -40.81 980.5 -34.69 926.4 -14.96 878.1 15.06 836.34 52.51 809.27 92.61 805.88 136.69 826.86 178.88 873.38 216.18 942.13 254.2 1025.5 285.72 1112.03 309.19Q1112.03 309.19 1112.03 309.19" opacity="0.08"></path><path d="M1078.46 208.07C1148.98 229.2 1200.63 245.4 1228.58 257.68 1233.51 271.01 1213.47 282.47 1172.84 294.37 1116.13 310.41 1049.21 330.72 978.97 358.12 907.72 393.42 841.92 438.96 784.69 495.46 734.78 559.06 694.84 630.76 663.83 706.11 639.89 777.21 621.77 840.73 606.93 888.65 595.68 915.44 584.34 916.61 570.93 889.45 558.41 839.37 542.02 768.27 520.89 684.99 499.77 604.55 474.91 537.09 447.59 490.36 421.17 468.95 394.07 472.19 368.72 496.09 346.95 538.98 330.28 590.54 321.66 642.98 320.11 696.3 329.72 739.89 351.94 770.62 381.48 792.3 422.24 799.72 471.49 794.88 519.73 781.73 567.71 760.28 608.93 734.08 634.08 703.93 642.1 672.92 629.01 643.78 592.91 613.72 536.98 587.41 466.46 566.29 388.64 545.16 316.6 530.22 258.69 520.45 207.69 506.03 249.99 478.78 327.02 452.71 391.65 424.99 459.11 387.24 524.35 337.88 588.07 279.46 644.9 210.82 693.62 135.51 737.36 61.06 773.73 -9.43 803.98 -67.81 830.82 -107.19 854.22 -122.45 875.74 -109.2 896.24 -70.62 916.77 -7.44 937.89 72.99 959.02 156.27 979.74 231.65 999.07 289.89 1024.91 330.62 1047.77 270.02 1035.81 198.62 1019.64 145.27 993.14 98.62 957.11 62.71 919.56 33.9 877.15 18.68 834.51 15.94 801.08 21.1 776.82 35.58 767.26 56.15 777.88 80.86 808.29 107.82 858.23 134.34 924.29 161.9 1000.61 186.94 1078.42 208.06Q1078.46 208.07 1078.46 208.07" opacity="0.51"></path><path d="M1044.45 173.12C1107.77 191.9 1156.41 210.61 1186.72 229.74 1199.52 249.77 1192.13 271.92 1167.08 297.53 1127.5 326.17 1076.64 360.63 1019.54 401.96 957.79 447.69 896.61 500.96 839.37 560.68 784.72 621.87 736.61 685.55 695.54 747.34 658.78 801.32 627.99 845.16 602.08 873.37 578.9 883.55 558.4 872.69 539.36 839.81 521.11 790.33 502.81 725.2 484.03 650.95 465.26 578.96 446.89 516.37 429.72 469.05 406.52 436.07 383.63 482.92 391.39 541.19 403.51 587.05 424.66 629.47 454.7 664.92 487.33 697.01 526.24 719.05 568.44 731.04 623 736.83 675.47 707.47 653.77 681.46 616.22 662.5 563.77 643.14 500.45 624.36 431.35 605.59 366.43 588.28 311.79 571.83 268.25 554.46 242.34 536.21 234.71 515.52 243.05 491.6 267.56 462.56 304.47 426.88 351.52 385.95 404.66 336.95 459.7 280.25 517.12 220.19 571.95 155.51 622.02 90.1 670.48 30.1 713.25 -22.38 750.1 -61.47 785.11 -83.5 815.32 -85.07 841.16 -63.89 866.35 -23.81 888.34 34.96 907.12 106.95 925.9 181.2 940.58 250.14 950.81 306.86 962.36 357.76 951.63 344.17 926.2 296.24 905.06 254 877.2 212.59 844.38 176.01 813.96 140.9 783.08 114.59 755.58 97.79 734.38 83.64 775.64 98.71 844.71 120.09 906.59 136.38 975.31 154.33 1044.41 173.11Q1044.45 173.12 1044.45 173.12" opacity="0.90"></path><path d="M1010.41 216.54C1113.83 249.4 1162.56 297.54 1151.71 362.05 1093.49 432.37 1001.93 525.02 903.89 631.43 802.82 728.94 717.34 810.52 652.68 846.12 593.88 826.27 548.77 743.55 515.9 616.94 474.29 457.7 492.21 456.14 567.31 546.46 650.63 628.35 668.85 647.1 534.41 604.97 413.61 572.11 320.35 528.03 276.66 469.96 278.97 404.65 328.95 316.3 404.1 209.87 496.34 106.53 585.78 11.59 658.85 -43.84 730.35 -44.41 784.16 21.14 817.02 140.94 849.88 267.55 858.69 363.59 844.13 407.52 828.01 396.01 789.85 349.29 740.68 294.85 708.61 231.5 693.48 190.14 715.25 176.77 783.03 169.21 889.61 183.68 1010.41 216.54Q1010.41 216.54 1010.41 216.54" opacity="0.16"></path><path d="M976.46 323.3C1067.37 351.46 1118.81 400.04 1125.96 465.02 1097.26 530.46 1037.38 609.94 964.61 691.11 881.9 757.01 804.64 801.82 742.18 806.71 681.1 772.11 634.97 692.69 606.8 582.99 578.64 478.3 571.1 400.53 583.37 361.78 597.01 363.88 630.32 393.36 676.11 431.81 711.96 481.94 741.97 519.16 750.02 535.3 722.22 549.6 659.37 542.92 568.46 514.76 464.67 486.59 379.43 439.6 328.7 376.48 308.67 311.54 326.62 230.36 369.72 143.31 430.73 67.95 497.65 8.59 557.1 -14.14 618.69 3.94 666.61 70.3 694.77 174.99 722.95 284.69 728.7 375.52 715.93 430.77 705.29 446.53 682.33 431.59 658.23 402.6 652.04 358.35 663.96 322.83 704.63 306.2 776 290.03 872.64 295.12 976.42 323.29Q976.46 323.3 976.46 323.3" opacity="0.34"></path><path d="M942.46 456.56C1019.98 480.03 1070.32 520.52 1089.56 572.24 1084.36 621.55 1053.69 676.19 1008.57 725.06 952.23 759.1 894.31 772.62 844.15 755.56 792.66 713.44 752.72 641.2 729.25 548.99 705.78 460.27 700.99 387.88 711.81 340.96 731.93 322.21 785.4 375.62 776.28 398.9 739.83 411.92 679.98 408.39 602.46 384.92 515.94 361.45 441.5 320.26 389.85 266.56 356.32 214.39 350.22 154.18 365.58 96.47 395.18 52.03 434.84 25.13 474.6 27.68 517.73 57.39 553.99 120.27 577.46 208.99 600.94 301.2 609.41 382.95 606.95 442.27 606.35 482.23 636.89 457.53 703.11 439.89 771.96 428.85 855.91 433.08 942.42 456.55Q942.46 456.56 942.46 456.56" opacity="0.43"></path><path d="M908.42 570.27C971.76 589.05 1017.45 616.58 1042.75 648.21 1053.45 677 1045.78 704.37 1025.33 723.09 996.04 731.28 961.63 722.89 928.85 693.73 893.97 650.94 864.98 589.23 846.2 514.98 827.42 442.98 820.64 379.79 822.97 331.69 825.77 290.37 822.71 279.42 792.12 282.32 753.06 285.33 699.76 279.06 636.42 260.28 567.32 241.5 505.87 211.99 458.67 176.44 409.27 94.91 470.41 143.19 500.58 242.98 519.36 317.23 532.35 386.55 541.89 443.1 554.26 486.02 568.36 514.33 588.28 530.76 617.09 536.64 657.32 538.58 709.3 542.33 770.26 543.24 839.32 551.5 908.42 570.27Q908.42 570.27 908.42 570.27" opacity="0.20"></path><path d="M874.46 625.2C965.37 653.36 1009.14 680.03 1008.64 681.36 987.65 660.94 950.34 590.69 922.18 480.99 894.01 376.29 880.31 295.47 864.39 250.24 827.97 228.06 761.37 212.07 670.46 183.91 566.66 155.74 491.18 120.72 459.9 105.98 444.88 114.31 459.21 172.29 487.38 276.99 515.54 386.69 552.21 479.77 604.15 537.11 672.35 572.7 770.66 597.03 874.46 625.2Q874.46 625.2 874.46 625.2" opacity="0.75"></path><path d="M840.42 602.32C955.36 639.88 971.8 589.73 934.25 446.98 896.69 312.98 819.36 219.71 704.42 182.15 566.96 144.6 504.29 176.98 541.85 310.98 579.4 453.73 702.96 564.77 840.42 602.32Q840.42 602.32 840.42 602.32" opacity="0.14"></path></g></svg>